<svg width="689" height="591" viewBox="0 0 689 591" fill="none" xmlns="http://www.w3.org/2000/svg">
<g clip-path="url(#clip0)">
<rect width="689" height="591" fill="white"/>
<path opacity="0.15" d="M171.832 80.6093C190.038 67.479 304.538 -13.2723 448.623 1.88725C543.553 11.8543 624.893 65.9869 712.41 101.081C783.412 129.549 860.136 145.783 937.51 148.767C958.902 149.603 980.683 149.484 1001.03 155.631C1050.71 170.611 1080.1 222.237 1075.94 270.044C1071.78 317.85 1039.85 360.762 999.604 391.379C959.357 421.997 911.177 442.229 863.582 462.044C795.896 490.215 763.061 506.21 739.328 513.789C638.742 546.078 552.981 547.57 504.996 548.047C406.88 549.002 333.017 533.724 315.657 529.904C210.194 506.806 62.7284 479.83 21.1155 384.934C-25.439 278.757 83.7949 144.052 171.832 80.6093Z" fill="#4DB6AC"/>
<path d="M82.2114 590.852C82.2114 590.852 77.7933 498.966 39.5225 476.697" stroke="#4DB6AC" stroke-width="4.9383"/>
<path d="M57.9115 497.474C57.9115 497.474 35.8207 487.861 37.3134 501.892C38.806 515.982 57.9115 504.877 57.9115 497.474ZM45.4929 478.488C45.4929 478.488 46.2094 454.248 33.7908 460.875C21.3722 467.442 38.6866 481.234 45.4929 478.488ZM60.5983 498.907C60.5983 498.907 84.122 493.832 74.808 483.204C65.4941 472.637 56.3592 492.877 60.5983 498.907ZM73.1363 528.341C73.1363 528.341 96.66 523.266 87.346 512.639C77.9724 502.071 68.8375 522.311 73.1363 528.341ZM69.8525 526.789C69.8525 526.789 48.1797 516.221 49.0752 530.311C49.9111 544.461 69.554 534.192 69.8525 526.789Z" fill="#4DB6AC"/>
<path d="M236.777 122.037L247.644 118.216L240.061 125.38L241.016 126.335C240.419 126.455 239.822 126.634 239.285 126.694C238.927 124.843 238.27 122.992 236.777 122.037Z" fill="#FFDB70"/>
<path d="M209.732 128.843C209.732 128.843 183.94 119.589 155.699 126.335C156.774 124.186 178.327 133.858 173.551 142.456C174.029 142.276 209.732 128.843 209.732 128.843Z" fill="#4DB6AC"/>
<path d="M229.614 118.275C229.614 118.275 171.76 149.62 133.25 147.77C134.743 147.471 162.983 177.383 213.911 158.457C215.523 156.845 259.705 128.485 229.614 118.275Z" fill="#45A49B"/>
<path d="M212.359 136.903C212.359 136.903 209.194 182.876 159.818 181.264C159.818 182.04 183.342 155.889 173.133 147.71C173.968 147.411 212.359 136.903 212.359 136.903Z" fill="#4DB6AC"/>
<path d="M247.704 118.275L240.121 130.873L239.106 126.156L247.704 118.275Z" fill="#F2C146"/>
<path d="M392.727 420.122C392.727 420.122 396.548 448.959 404.667 458.094C412.787 467.229 447.118 498.932 453.327 500.843C454.222 501.141 469.149 501.32 475.776 497.977C475.776 497.499 488.971 484.543 493.568 491.23C493.568 491.469 493.508 494.753 487.538 498.574C487.06 499.052 477.209 503.708 480.314 508.962C480.791 508.485 497.15 512.306 493.15 496.484C493.15 496.723 490.941 492.484 494.284 489.618C497.628 486.752 502.404 497.977 502.404 497.977L504.613 505.679C504.613 505.679 504.375 516.485 498.882 521.56C493.389 526.635 488.314 526.038 479.955 525.083C471.597 524.128 445.744 514.336 445.744 514.336L445.924 514.037C437.147 510.395 382.517 486.931 377.263 468.184C371.531 447.765 371.054 442.272 371.054 442.272L392.727 420.122Z" fill="#E6B7AF"/>
<path d="M381.024 432.003L392.727 420.122C392.727 420.122 396.548 448.959 404.668 458.094C412.787 467.229 447.118 498.932 453.327 500.843C453.446 500.902 453.566 500.962 453.685 501.022C419.235 497.439 388.905 468.721 381.024 432.003Z" fill="#E0A39A"/>
<path d="M163.161 532.06C163.161 532.06 222.806 508.783 246.987 515.232C247.643 515.232 254.629 499.887 254.629 499.887C254.629 499.887 347.828 490.573 365.978 500.186C364.068 500.843 367.889 513.62 377.442 516.844C386.994 520.068 448.371 519.411 452.192 522.934C456.013 526.456 270.928 553.025 270.928 553.025L163.161 532.06Z" fill="#F66D72"/>
<path opacity="0.07" d="M163.46 532.06C163.46 532.06 222.807 508.783 246.987 515.232C247.644 515.232 254.629 499.887 254.629 499.887C254.629 499.887 347.828 490.573 365.979 500.186C364.068 500.843 367.889 513.62 377.442 516.844C386.995 520.068 448.371 519.411 452.192 522.934C456.014 526.456 270.929 553.025 270.929 553.025L163.46 532.06Z" fill="black"/>
<path d="M302.868 539.816C302.868 539.816 191.193 506.929 150.841 538.728C110.43 570.528 198.038 615.113 304.455 567.982C304.468 569.236 302.868 539.816 302.868 539.816Z" fill="#F66D72"/>
<path d="M302.283 541.075C302.283 541.075 308.021 541.676 309.894 537.777C311.767 533.937 313.465 512.128 337.131 526.645C338.385 526.633 351.535 534.207 375.931 525.61C375.931 525.61 391.691 512.978 393.741 527.348C393.433 526.395 326.335 564.485 322.517 564.881C318.699 565.216 302.944 566.027 302.944 566.027L302.283 541.075Z" fill="#E6B7AF"/>
<path d="M302.754 558.804L302.944 566.026C302.944 566.026 318.699 565.216 322.517 564.881C324.784 564.679 349.608 551.003 369.326 540.184C350.866 545.259 333.395 553.788 313.854 558.218C310.571 558.31 306.636 558.945 302.754 558.804Z" fill="#E0A39A"/>
<path d="M303.889 558.852C303.451 550.617 302.867 539.756 302.867 539.756C302.867 539.756 191.252 506.869 150.841 538.669C144.975 543.264 141.858 548.13 141.009 552.915C186.81 584.114 250.868 571.071 303.889 558.852Z" fill="#F66D72"/>
<path opacity="0.07" d="M141.01 552.975C136.152 581.443 213.376 608.276 304.396 567.983C304.333 567.625 304.116 563.687 303.89 558.912C250.869 571.071 186.81 584.114 141.01 552.975Z" fill="black"/>
<path d="M336.614 556.778L340.747 583.618L264.063 581.615L302.736 563.938L336.614 556.778Z" fill="#E6B7AF"/>
<path d="M338.99 572.013L336.673 556.777L302.795 563.937L281.149 573.267C300.361 572.472 319.648 572.333 338.99 572.013Z" fill="#E0A39A"/>
<path d="M334.394 556.351C334.394 556.351 333.487 571.6 342.059 586.156C343.319 586.426 489.179 605.866 487.856 560.748C486.532 515.63 458.276 517.884 439.854 519.258C421.37 520.573 387.885 516.079 334.394 556.351Z" fill="#F66D72"/>
<path opacity="0.07" d="M337.018 574.566C338.178 578.302 339.759 582.207 342.059 586.156C343.319 586.426 489.179 605.866 487.856 560.748C487.787 557.704 487.54 554.723 487.114 551.747C453.788 591.083 384.453 580.595 337.018 574.566Z" fill="black"/>
<path d="M254.629 499.171L265.018 474.99L353.679 476.543L365.62 501.738L254.629 499.171Z" fill="white"/>
<path d="M341.917 295.16C341.201 298.085 340.365 300.951 339.41 303.757C334.036 318.743 318.991 336.177 301.02 327.878C290.571 323.042 281.257 309.13 277.794 298.384C275.287 300.414 266.451 298.204 266.212 287.099C266.092 282.024 267.883 281.069 269.854 281.547C270.272 283.159 270.63 284.174 270.63 284.174C271.466 284.114 272.302 283.756 273.197 283.338C273.615 283.636 273.973 283.935 274.212 284.174C274.152 283.756 274.033 283.338 273.973 282.92C282.451 277.726 293.437 258.322 293.437 258.919C311.169 269.785 336.783 278.86 346.276 279.338C345.739 281.487 344.962 283.577 343.947 285.547C342.574 288.055 342.574 292.294 341.917 295.16ZM303.468 221.305C265.794 221.723 250.629 270.382 250.629 270.382C250.629 270.382 238.031 303.458 184.894 310.265C124.293 318.026 97.0679 416.42 152.474 423.525C207.82 430.63 280.302 418.271 287.646 389.493C294.989 360.656 334.574 341.729 334.574 341.729C334.574 341.729 401.503 220.111 303.468 221.305Z" fill="#005095"/>
<path d="M348.068 351.999C334.992 351.999 324.245 346.565 324.245 339.878C324.245 333.191 329.738 290.025 311.051 290.025C290.93 290.025 297.856 333.251 297.856 339.878C297.856 346.506 286.512 351.999 272.66 351.999C258.809 351.999 247.465 366.925 247.465 385.194V421.674C247.465 430.809 267.347 422.51 273.257 428.54C279.168 434.57 271.048 454.87 280.004 454.87H339.351C347.112 454.87 354.277 435.466 359.889 430.809C367.233 424.719 371.89 432.003 371.89 421.674V385.194C371.83 366.925 361.143 351.999 348.068 351.999Z" fill="#E6B7AF"/>
<path d="M248.48 409.853C267.944 374.567 268.362 381.373 303.349 381.373C297.08 356.118 314.513 353.431 328.305 344.237C326.395 342.506 325.32 340.535 325.32 338.446C325.32 331.759 330.873 288.592 311.946 288.592C291.527 288.592 298.572 331.818 298.572 338.446C298.572 345.073 287.109 350.566 273.019 350.566C258.988 350.566 247.465 365.492 247.465 383.762V411.166C248.122 410.808 248.48 410.45 248.48 409.853Z" fill="#E0A39A"/>
<path d="M396.547 415.644C396.547 415.644 382.935 384.478 374.695 366.865C366.695 349.73 353.441 350.267 353.441 350.267C353.441 350.267 349.739 349.789 349.739 349.849L337.858 347.879C334.992 385.374 310.692 380.955 310.692 380.955H309.319C309.319 380.955 287.586 385.493 284.78 347.939L264.242 349.133C264.242 349.133 246.509 349.192 238.27 366.865C230.031 384.478 221.194 417.495 221.194 417.495L252.062 447.944C252.062 447.944 253.674 445.317 256.719 440.123C259.405 449.556 262.45 461.736 265.018 474.991C295.646 476.423 322.334 476.423 353.679 476.543C356.485 467.289 361.202 456.183 365.202 446.332C366.396 448.362 367.232 449.616 367.232 449.616L396.547 415.644Z" fill="#F66D72"/>
<path opacity="0.07" d="M264.779 427.824C264.779 425.913 266.689 420.122 268.6 420.122C284.959 412.778 302.99 398.568 303.05 380.657C296.422 378.985 286.631 372.358 284.78 347.998L264.242 349.193C264.242 349.193 246.509 349.252 238.27 366.925C230.031 384.597 221.194 417.555 221.194 417.555L252.062 448.004C252.062 448.004 253.674 445.377 256.719 440.183C259.107 448.72 261.256 457.318 263.107 465.975C270.152 454.87 269.078 440.78 264.779 427.824Z" fill="black"/>
<path d="M374.696 366.865C366.695 349.73 353.441 350.267 353.441 350.267C353.441 350.267 349.739 349.789 349.739 349.849L337.858 347.879C334.992 385.374 310.692 380.955 310.692 380.955H309.319C309.319 380.955 306.632 381.493 303.05 380.597C302.99 398.509 284.9 412.778 268.6 420.062C266.69 420.062 264.779 425.853 264.779 427.764C269.078 440.72 270.152 454.81 263.167 465.915C263.824 468.901 264.421 471.946 265.018 475.05C295.646 476.483 322.334 476.483 353.679 476.603C356.486 467.348 361.202 456.243 365.203 446.392C366.397 448.422 367.233 449.676 367.233 449.676L396.488 415.704C396.548 415.644 382.935 384.478 374.696 366.865Z" fill="#F66D72"/>
<path d="M270.511 284.114C270.511 284.114 253.913 238.738 309.02 233.604C309.02 233.604 349.799 230.38 349.799 278.502C347.291 282.323 314.633 271.874 293.437 258.859C293.378 258.202 279.049 283.517 270.511 284.114Z" fill="#005095"/>
<path d="M293.378 258.859C293.378 258.262 282.332 277.666 273.914 282.86C273.974 283.219 274.033 283.636 274.153 284.114C273.794 283.816 273.436 283.517 273.078 283.278C272.182 283.756 271.347 284.054 270.511 284.114C270.511 284.114 270.152 283.159 269.735 281.487C267.764 281.009 265.973 281.965 266.093 287.04C266.331 298.145 275.168 300.414 277.675 298.324C281.198 309.071 290.512 322.982 300.96 327.818C318.931 336.117 333.977 318.683 339.35 303.697C340.365 300.891 341.201 298.025 341.858 295.1C342.574 292.234 342.515 287.995 343.828 285.428C344.843 283.457 345.619 281.368 346.157 279.218C336.723 278.8 311.11 269.725 293.378 258.859Z" fill="#E6B7AF"/>
<path d="M309.319 267.277C303.707 264.71 298.214 261.844 293.378 258.859C293.378 258.262 282.332 277.666 273.914 282.86C273.973 283.219 274.033 283.636 274.153 284.114C273.794 283.816 273.496 283.517 273.138 283.278C272.242 283.756 271.406 284.054 270.57 284.114C270.57 284.114 270.212 283.159 269.794 281.487C267.824 281.009 266.033 281.965 266.152 287.04C266.391 298.145 275.227 300.414 277.735 298.324L277.795 298.503C287.885 287.935 297.855 277.129 309.319 267.277Z" fill="#E0A39A"/>
<path d="M229.016 425.017C229.016 425.017 225.195 453.855 217.075 462.99C208.955 472.125 174.625 503.828 168.415 505.738C167.52 506.037 152.593 506.216 145.966 502.873C145.966 502.395 132.771 489.439 128.174 496.126C128.174 496.365 128.234 499.648 134.204 503.47C134.682 503.947 144.533 508.604 141.429 513.858C140.951 513.381 124.592 517.202 128.652 501.38C128.652 501.619 130.861 497.38 127.517 494.514C124.174 491.648 119.398 502.813 119.398 502.813L117.188 510.515C117.188 510.515 117.427 521.321 122.92 526.337C128.413 531.352 133.488 530.814 141.847 529.859C150.205 528.904 176.057 519.112 176.057 519.112L175.878 518.814C184.655 515.172 239.285 491.708 244.539 472.96C250.271 452.541 250.748 447.049 250.748 447.049L229.016 425.017Z" fill="#E6B7AF"/>
<path d="M240.717 436.959L229.015 425.077C229.015 425.077 225.194 453.915 217.074 463.05C208.954 472.184 174.624 503.888 168.415 505.798C168.295 505.858 168.176 505.918 168.057 505.977C202.566 502.395 232.836 473.677 240.717 436.959Z" fill="#E0A39A"/>
<line x1="31" y1="589" x2="696" y2="589" stroke="#6FCFC5" stroke-width="4" stroke-linecap="round"/>
</g>
<defs>
<clipPath id="clip0">
<rect width="689" height="591" fill="white"/>
</clipPath>
</defs>
</svg>
