<svg width="180" height="60" viewBox="0 0 180 60" fill="none" xmlns="http://www.w3.org/2000/svg">
<path d="M27.6737 11.0964C30.4651 11.0964 32.7111 12.0171 34.4116 13.8584C36.1442 15.6998 37.0105 18.2679 37.0105 21.563V35.4214C37.0105 36.1321 36.7859 36.7297 36.3367 37.2143C35.8876 37.6665 35.294 37.8927 34.556 37.8927C33.8501 37.8927 33.2565 37.6665 32.7753 37.2143C32.3261 36.7297 32.1015 36.1321 32.1015 35.4214V21.563C32.1015 19.5924 31.6042 18.1064 30.6095 17.105C29.6469 16.0713 28.3475 15.5544 26.7111 15.5544C25.0427 15.5544 23.663 16.1359 22.5721 17.2988C21.5133 18.4618 20.9839 19.9478 20.9839 21.7568V35.4214C20.9839 36.1321 20.7593 36.7297 20.3101 37.2143C19.8609 37.6665 19.2673 37.8927 18.5293 37.8927C17.8235 37.8927 17.2299 37.6665 16.7486 37.2143C16.2994 36.7297 16.0748 36.1321 16.0748 35.4214V21.563C16.0748 19.5924 15.5775 18.1064 14.5828 17.105C13.6203 16.0713 12.3208 15.5544 10.6844 15.5544C8.98392 15.5544 7.5882 16.1359 6.4973 17.2988C5.43848 18.4618 4.90907 19.9478 4.90907 21.7568V35.4214C4.90907 36.1321 4.68447 36.7297 4.23528 37.2143C3.78608 37.6665 3.1925 37.8927 2.45454 37.8927C1.74866 37.8927 1.15507 37.6665 0.673791 37.2143C0.224595 36.7297 0 36.1321 0 35.4214V13.8584C0 13.1155 0.224595 12.5178 0.673791 12.0656C1.15507 11.6133 1.74866 11.3872 2.45454 11.3872C3.16042 11.3872 3.73795 11.6133 4.18715 12.0656C4.63634 12.4855 4.87698 13.0508 4.90907 13.7615C5.74329 12.9216 6.73794 12.2755 7.89301 11.8233C9.04809 11.3387 10.2994 11.0964 11.647 11.0964C13.2834 11.0964 14.7433 11.4356 16.0267 12.114C17.3422 12.7601 18.417 13.6969 19.2513 14.9245C20.2138 13.7292 21.417 12.7924 22.8609 12.114C24.3047 11.4356 25.909 11.0964 27.6737 11.0964Z" fill="#F66D72"/>
<path d="M57.1029 11.1449C59.6377 11.1449 61.8997 11.7264 63.889 12.8893C65.9104 14.02 67.4826 15.6029 68.6055 17.638C69.7606 19.6732 70.3382 21.9991 70.3382 24.6157C70.3382 27.2 69.7767 29.5098 68.6537 31.5449C67.5307 33.5801 65.9585 35.1791 63.9371 36.3421C61.9478 37.4727 59.6697 38.038 57.1029 38.038C54.5361 38.038 52.242 37.4727 50.2206 36.3421C48.1992 35.1791 46.627 33.5801 45.504 31.5449C44.381 29.5098 43.8195 27.2 43.8195 24.6157C43.8195 21.9991 44.381 19.6732 45.504 17.638C46.627 15.6029 48.1992 14.02 50.2206 12.8893C52.242 11.7264 54.5361 11.1449 57.1029 11.1449ZM57.1029 15.506C55.4666 15.506 53.9906 15.8936 52.6751 16.6689C51.3917 17.4442 50.381 18.5264 49.6431 19.9155C48.9051 21.3045 48.5361 22.8713 48.5361 24.6157C48.5361 26.3601 48.9051 27.9269 49.6431 29.3159C50.381 30.6727 51.3917 31.7388 52.6751 32.514C53.9906 33.2893 55.4666 33.677 57.1029 33.677C58.7393 33.677 60.1992 33.2893 61.4826 32.514C62.7981 31.7388 63.8088 30.6727 64.5147 29.3159C65.2526 27.9269 65.6216 26.3601 65.6216 24.6157C65.6216 22.8713 65.2526 21.3045 64.5147 19.9155C63.8088 18.5264 62.7981 17.4442 61.4826 16.6689C60.1992 15.8936 58.7393 15.506 57.1029 15.506Z" fill="#F66D72"/>
<path d="M89.58 11.1449C92.1148 11.1449 94.3768 11.7264 96.3661 12.8893C98.3875 14.02 99.9597 15.6029 101.083 17.638C102.238 19.6732 102.815 21.9991 102.815 24.6157C102.815 27.2 102.254 29.5098 101.131 31.5449C100.008 33.5801 98.4356 35.1791 96.4142 36.3421C94.4249 37.4727 92.1468 38.038 89.58 38.038C87.0132 38.038 84.7191 37.4727 82.6977 36.3421C80.6763 35.1791 79.1041 33.5801 77.9811 31.5449C76.8581 29.5098 76.2967 27.2 76.2967 24.6157C76.2967 21.9991 76.8581 19.6732 77.9811 17.638C79.1041 15.6029 80.6763 14.02 82.6977 12.8893C84.7191 11.7264 87.0132 11.1449 89.58 11.1449ZM89.58 15.506C87.9436 15.506 86.4677 15.8936 85.1522 16.6689C83.8688 17.4442 82.8581 18.5264 82.1201 19.9155C81.3822 21.3045 81.0132 22.8713 81.0132 24.6157C81.0132 26.3601 81.3822 27.9269 82.1201 29.3159C82.8581 30.6727 83.8688 31.7388 85.1522 32.514C86.4677 33.2893 87.9436 33.677 89.58 33.677C91.2164 33.677 92.6762 33.2893 93.9597 32.514C95.2752 31.7388 96.2859 30.6727 96.9917 29.3159C97.7297 27.9269 98.0987 26.3601 98.0987 24.6157C98.0987 22.8713 97.7297 21.3045 96.9917 19.9155C96.2859 18.5264 95.2752 17.4442 93.9597 16.6689C92.6762 15.8936 91.2164 15.506 89.58 15.506Z" fill="#F66D72"/>
<path d="M132.838 0C133.576 0 134.169 0.226127 134.619 0.678384C135.068 1.13064 135.292 1.72827 135.292 2.47126V24.5672C135.292 27.087 134.699 29.3806 133.512 31.448C132.357 33.4832 130.768 35.0984 128.747 36.2936C126.758 37.4566 124.528 38.038 122.057 38.038C119.587 38.038 117.325 37.4566 115.271 36.2936C113.25 35.0984 111.661 33.4832 110.506 31.448C109.351 29.3806 108.774 27.087 108.774 24.5672C108.774 22.0475 109.303 19.7701 110.362 17.7349C111.453 15.6675 112.929 14.0523 114.79 12.8893C116.683 11.7264 118.784 11.1449 121.095 11.1449C122.955 11.1449 124.688 11.5326 126.292 12.3078C127.897 13.0831 129.26 14.1653 130.383 15.5544V2.47126C130.383 1.72827 130.608 1.13064 131.057 0.678384C131.538 0.226127 132.132 0 132.838 0ZM122.057 33.677C123.661 33.677 125.105 33.2893 126.389 32.514C127.704 31.7064 128.731 30.6081 129.469 29.219C130.207 27.83 130.576 26.2794 130.576 24.5672C130.576 22.8551 130.207 21.3207 129.469 19.9639C128.731 18.5748 127.704 17.4927 126.389 16.7174C125.105 15.9098 123.661 15.506 122.057 15.506C120.453 15.506 118.993 15.9098 117.677 16.7174C116.394 17.4927 115.367 18.5748 114.597 19.9639C113.859 21.3207 113.49 22.8551 113.49 24.5672C113.49 26.2794 113.859 27.83 114.597 29.219C115.367 30.6081 116.394 31.7064 117.677 32.514C118.993 33.2893 120.453 33.677 122.057 33.677Z" fill="#F66D72"/>
<path d="M142.999 2.42281C142.999 1.71212 143.223 1.13064 143.673 0.678384C144.122 0.226127 144.699 0 145.405 0C146.111 0 146.689 0.226127 147.138 0.678384C147.587 1.13064 147.812 1.71212 147.812 2.42281V28.8798C147.812 30.0751 148.036 31.0604 148.485 31.8357C148.935 32.611 149.512 32.9986 150.218 32.9986H151.421C152.063 32.9986 152.576 33.2247 152.961 33.677C153.379 34.1292 153.587 34.7107 153.587 35.4214C153.587 36.1321 153.282 36.7136 152.673 37.1658C152.063 37.6181 151.277 37.8442 150.314 37.8442H150.218C148.838 37.8442 147.587 37.4727 146.464 36.7297C145.373 35.9544 144.523 34.8884 143.913 33.5316C143.304 32.1426 142.999 30.592 142.999 28.8798V2.42281Z" fill="#F66D72"/>
<path d="M178.508 11.581C179.503 11.9687 180 12.5986 180 13.4708C180 13.7938 179.904 14.1815 179.711 14.6337L164.984 47.9715C164.599 48.973 163.973 49.4737 163.107 49.4737C162.786 49.4737 162.401 49.3768 161.952 49.1829C160.989 48.763 160.508 48.1331 160.508 47.2932C160.508 46.9055 160.604 46.5179 160.797 46.1302L165.61 35.2276L154.781 14.5368C154.62 14.2461 154.54 13.9069 154.54 13.5193C154.54 13.0993 154.669 12.7116 154.925 12.3563C155.182 12.001 155.519 11.7264 155.936 11.5326C156.225 11.4033 156.546 11.3387 156.898 11.3387C157.797 11.3387 158.471 11.791 158.92 12.6955L167.727 30.3335L175.476 12.744C175.893 11.8071 176.519 11.3387 177.353 11.3387C177.77 11.3387 178.155 11.4195 178.508 11.581Z" fill="#F66D72"/>
<path fill-rule="evenodd" clip-rule="evenodd" d="M92.0361 48.142C92.9084 49.0863 92.8111 50.5247 91.8187 51.3548L88.9345 53.7671C78.9506 62.1177 63.9899 62.0724 54.062 53.6615L51.3279 51.3452C50.3411 50.5091 50.2534 49.0702 51.1319 48.1311C52.0105 47.1921 53.5227 47.1086 54.5095 47.9447L57.2437 50.261C65.3665 57.1427 77.6071 57.1797 85.7757 50.3474L88.6598 47.9351C89.6522 47.105 91.1638 47.1977 92.0361 48.142Z" fill="#F66D72"/>
</svg>
